<?xml version="1.0" encoding="iso-8859-1"?>
<!-- Generator: Adobe Illustrator 19.0.0, SVG Export Plug-In . SVG Version: 6.00 Build 0)  -->
<svg version="1.1" id="Capa_1" xmlns="http://www.w3.org/2000/svg" xmlns:xlink="http://www.w3.org/1999/xlink" x="0px" y="0px"
	 viewBox="0 0 463 463" style="enable-background:new 0 0 463 463;" xml:space="preserve">
<g>
	<path d="M431.5,76H183v-8.5c0-8.547-6.953-15.5-15.5-15.5h-24c-8.547,0-15.5,6.953-15.5,15.5V76h-17v-8.5
		c0-8.547-6.953-15.5-15.5-15.5h-40C46.953,52,40,58.953,40,67.5V76h-8.5C14.131,76,0,90.131,0,107.5v272
		C0,396.869,14.131,411,31.5,411h400c17.369,0,31.5-14.131,31.5-31.5v-272C463,90.131,448.869,76,431.5,76z M287.305,356
		C320.576,336.685,343,300.663,343,259.5c0-27.657-10.126-52.992-26.86-72.5H368v169H287.305z M15,356V187h36.989
		c7.133,8.032,16.938,13.638,28.011,15.402V356H15z M87.5,188C69.58,188,55,173.42,55,155.5S69.58,123,87.5,123
		s32.5,14.58,32.5,32.5S105.42,188,87.5,188z M95,202.402c11.073-1.764,20.877-7.37,28.011-15.402h23.85
		C130.126,206.508,120,231.843,120,259.5c0,41.163,22.424,77.185,55.695,96.5H95V202.402z M135,259.5c0-53.21,43.29-96.5,96.5-96.5
		s96.5,43.29,96.5,96.5S284.71,356,231.5,356S135,312.71,135,259.5z M383,187h65v169h-65V187z M143,67.5c0-0.276,0.224-0.5,0.5-0.5
		h24c0.276,0,0.5,0.224,0.5,0.5V76h-25V67.5z M55,67.5c0-0.276,0.224-0.5,0.5-0.5h40c0.276,0,0.5,0.224,0.5,0.5V76H55V67.5z
		 M31.5,91h400c9.098,0,16.5,7.402,16.5,16.5V172H300.531c-19-15.021-42.986-24-69.031-24s-50.031,8.979-69.031,24H132.04
		c1.911-5.142,2.96-10.7,2.96-16.5c0-26.191-21.309-47.5-47.5-47.5S40,129.309,40,155.5c0,5.8,1.049,11.358,2.96,16.5H15v-64.5
		C15,98.402,22.402,91,31.5,91z M431.5,396h-400c-9.098,0-16.5-7.402-16.5-16.5V371h433v8.5C448,388.598,440.598,396,431.5,396z"/>
	<path d="M231.5,180c-43.836,0-79.5,35.664-79.5,79.5s35.664,79.5,79.5,79.5s79.5-35.664,79.5-79.5S275.336,180,231.5,180z
		 M231.5,324c-35.565,0-64.5-28.935-64.5-64.5s28.935-64.5,64.5-64.5s64.5,28.935,64.5,64.5S267.065,324,231.5,324z"/>
	<path d="M231.5,228c-17.369,0-31.5,14.131-31.5,31.5s14.131,31.5,31.5,31.5s31.5-14.131,31.5-31.5S248.869,228,231.5,228z
		 M231.5,276c-9.098,0-16.5-7.402-16.5-16.5s7.402-16.5,16.5-16.5s16.5,7.402,16.5,16.5S240.598,276,231.5,276z"/>
	<path d="M87.5,132C74.542,132,64,142.542,64,155.5S74.542,179,87.5,179s23.5-10.542,23.5-23.5S100.458,132,87.5,132z M87.5,164
		c-4.687,0-8.5-3.813-8.5-8.5s3.813-8.5,8.5-8.5s8.5,3.813,8.5,8.5S92.187,164,87.5,164z"/>
	<path d="M343.5,155h64c12.958,0,23.5-10.542,23.5-23.5S420.458,108,407.5,108h-64c-12.958,0-23.5,10.542-23.5,23.5
		S330.542,155,343.5,155z M416,131.5c0,4.687-3.813,8.5-8.5,8.5H383v-17h24.5C412.187,123,416,126.813,416,131.5z M343.5,123H368v17
		h-24.5c-4.687,0-8.5-3.813-8.5-8.5S338.813,123,343.5,123z"/>
</g>
<g>
</g>
<g>
</g>
<g>
</g>
<g>
</g>
<g>
</g>
<g>
</g>
<g>
</g>
<g>
</g>
<g>
</g>
<g>
</g>
<g>
</g>
<g>
</g>
<g>
</g>
<g>
</g>
<g>
</g>
</svg>
