<?xml version="1.0" encoding="iso-8859-1"?>
<!-- Generator: Adobe Illustrator 16.0.0, SVG Export Plug-In . SVG Version: 6.00 Build 0)  -->
<!DOCTYPE svg PUBLIC "-//W3C//DTD SVG 1.1//EN" "http://www.w3.org/Graphics/SVG/1.1/DTD/svg11.dtd">
<svg version="1.1" id="Capa_1" xmlns="http://www.w3.org/2000/svg" xmlns:xlink="http://www.w3.org/1999/xlink" x="0px" y="0px"
	 width="482.586px" height="482.586px" viewBox="0 0 482.586 482.586" style="enable-background:new 0 0 482.586 482.586;"
	 xml:space="preserve">
<g>
	<g>
		<path d="M299.684,154.26c-8.187,8.188-5.545,19.518,0.703,27.117l25.291-25.291C323.355,153.765,311.184,142.759,299.684,154.26z"
			/>
		<path d="M242.189,281.092c-0.823-1.363-1.931-2.755-3.205-4.029l-7.445-7.446c-0.281,0.273-0.56,0.548-0.833,0.821
			c-12.69,12.69-15.482,22.767-8.299,29.948c5.102,5.104,11.3,4.998,16.578-0.281c5.029-5.026,6.364-12.802,3.256-18.923
			L242.189,281.092z"/>
		<path d="M482.387,162.324L463.239,34.42c-1.166-7.792-7.282-13.909-15.073-15.074L320.262,0.198
			c-5.623-0.842-11.311,1.034-15.33,5.053L5.251,304.932c-7,6.999-7,18.352,0,25.352l147.052,147.051c7,7.002,18.351,7.002,25.351,0
			l299.682-299.682C481.355,173.634,483.23,167.945,482.387,162.324z M202.998,347.434c-0.641,12.88-7.441,25.887-20.213,38.66
			c-10.673,10.672-22.865,17.571-30.065,20.236c-1.442,0.534-3.059-0.031-3.855-1.347l-9.987-16.509
			c-0.491-0.812-0.598-1.799-0.291-2.694c0.307-0.898,0.996-1.613,1.882-1.955c9.769-3.759,19.252-9.793,26.018-16.561
			c9.414-9.413,11.2-18.869,4.777-25.291c-5.729-5.729-13.111-5.089-29.251,2.542c-23.556,11.388-41.204,10.744-53.929-1.979
			c-17.061-17.062-14.123-42.92,7.306-64.352c8.198-8.196,17.04-14.357,26.28-18.312c1.5-0.644,3.244-0.056,4.049,1.364L135,277.611
			c0.453,0.799,0.541,1.755,0.243,2.622c-0.3,0.868-0.957,1.567-1.805,1.918c-7.803,3.232-14.837,7.946-20.907,14.02
			c-10.151,10.149-9.052,18.486-4.636,22.902c6.055,6.054,14.075,3.36,30.936-4.228c22.953-10.562,39.739-9.401,52.806,3.663
			C199.499,326.372,203.535,336.646,202.998,347.434z M283.153,282.914l-14.741,14.739c-1.095,1.096-2.813,1.251-4.085,0.374
			l-5.952-4.104l-0.421,0.422c0.975,9.896-3.019,19.876-11.242,28.101c-14.575,14.574-32.802,11.598-43.276,1.124
			c-10.013-10.014-12.461-22.72-7.076-36.741c4.499-11.719,13.653-22.387,20.539-29.272l0.59-0.583l-0.985-0.985
			c-3.306-3.306-10.477-7.228-21.356,3.653c-5.447,5.448-10.195,13.092-12.7,20.441c-0.305,0.899-0.994,1.618-1.881,1.958
			c-0.887,0.343-1.878,0.272-2.708-0.188l-11.889-6.604c-1.366-0.76-1.985-2.393-1.466-3.866
			c2.092-5.946,7.449-17.771,19.825-30.146c19.763-19.764,40.461-19.957,59.854-0.563l23.886,23.886
			c4.048,4.048,9.901,9.688,14.81,13.579c0.716,0.568,1.155,1.414,1.208,2.326C284.14,281.377,283.8,282.267,283.153,282.914z
			 M313.717,252.351l-16.825,16.824c-1.251,1.251-3.279,1.251-4.531,0l-95.227-95.226c-1.252-1.253-1.252-3.28,0-4.532
			l16.824-16.825c1.252-1.251,3.28-1.251,4.533,0l95.226,95.227C314.969,249.068,314.969,251.1,313.717,252.351z M379.89,181.938
			c-4.237,8.851-10.983,18.036-19.507,26.559c-11.163,11.163-23.662,17.229-36.144,17.542c-12.545,0.316-24.825-5.168-35.516-15.856
			c-17.662-17.662-25.812-47.531-1.967-71.376c10.233-10.233,22.327-14.634,34.974-12.725c10.303,1.556,20.937,7.372,29.939,16.377
			c2.666,2.665,4.757,5.197,6.042,6.852c0.99,1.276,0.875,3.09-0.265,4.233l-42.309,42.308c8.568,7.307,21.308,4.825,32.457-6.323
			c6.056-6.055,10.663-12.009,14.504-18.738c0.443-0.773,1.188-1.33,2.056-1.532c0.867-0.203,1.781-0.034,2.521,0.463l12.115,8.178
			C380.109,178.785,380.576,180.504,379.89,181.938z M409.843,114.281c-11.47,11.469-30.065,11.469-41.536-0.003
			c-11.47-11.469-11.471-30.064,0-41.535c11.471-11.47,30.066-11.47,41.536,0C421.312,84.213,421.312,102.81,409.843,114.281z"/>
	</g>
</g>
<g>
</g>
<g>
</g>
<g>
</g>
<g>
</g>
<g>
</g>
<g>
</g>
<g>
</g>
<g>
</g>
<g>
</g>
<g>
</g>
<g>
</g>
<g>
</g>
<g>
</g>
<g>
</g>
<g>
</g>
</svg>
